<mxfile host="app.diagrams.net" modified="2021-05-23T08:37:53.475Z" agent="5.0 (Macintosh; Intel Mac OS X 10_15_7) AppleWebKit/605.1.15 (KHTML, like Gecko) Version/14.1 Safari/605.1.15" etag="L7Bj6kbtSu1FzCv2sg3z" version="14.7.0" type="github">
  <diagram id="C5RBs43oDa-KdzZeNtuy" name="Page-1">
    <mxGraphModel dx="830" dy="535" grid="1" gridSize="10" guides="1" tooltips="1" connect="1" arrows="1" fold="1" page="1" pageScale="1" pageWidth="827" pageHeight="1169" math="0" shadow="0">
      <root>
        <mxCell id="WIyWlLk6GJQsqaUBKTNV-0" />
        <mxCell id="WIyWlLk6GJQsqaUBKTNV-1" parent="WIyWlLk6GJQsqaUBKTNV-0" />
        <mxCell id="j1qlspJzr_2KOxk9KuWd-8" value="" style="edgeStyle=orthogonalEdgeStyle;rounded=0;orthogonalLoop=1;jettySize=auto;html=1;" edge="1" parent="WIyWlLk6GJQsqaUBKTNV-1" source="j1qlspJzr_2KOxk9KuWd-1" target="j1qlspJzr_2KOxk9KuWd-6">
          <mxGeometry relative="1" as="geometry" />
        </mxCell>
        <mxCell id="j1qlspJzr_2KOxk9KuWd-1" value="开始" style="rounded=1;whiteSpace=wrap;html=1;" vertex="1" parent="WIyWlLk6GJQsqaUBKTNV-1">
          <mxGeometry x="100" y="230" width="60" height="40" as="geometry" />
        </mxCell>
        <mxCell id="j1qlspJzr_2KOxk9KuWd-5" value="" style="edgeStyle=orthogonalEdgeStyle;rounded=0;orthogonalLoop=1;jettySize=auto;html=1;" edge="1" parent="WIyWlLk6GJQsqaUBKTNV-1" source="j1qlspJzr_2KOxk9KuWd-2" target="j1qlspJzr_2KOxk9KuWd-4">
          <mxGeometry relative="1" as="geometry" />
        </mxCell>
        <mxCell id="j1qlspJzr_2KOxk9KuWd-2" value="拆分渲染任务" style="rounded=0;whiteSpace=wrap;html=1;" vertex="1" parent="WIyWlLk6GJQsqaUBKTNV-1">
          <mxGeometry x="300" y="230" width="60" height="40" as="geometry" />
        </mxCell>
        <mxCell id="j1qlspJzr_2KOxk9KuWd-11" value="" style="edgeStyle=orthogonalEdgeStyle;rounded=0;orthogonalLoop=1;jettySize=auto;html=1;" edge="1" parent="WIyWlLk6GJQsqaUBKTNV-1" source="j1qlspJzr_2KOxk9KuWd-4" target="j1qlspJzr_2KOxk9KuWd-10">
          <mxGeometry relative="1" as="geometry" />
        </mxCell>
        <mxCell id="j1qlspJzr_2KOxk9KuWd-4" value="创建多个线程并将任务分配给各个线程" style="rounded=0;whiteSpace=wrap;html=1;" vertex="1" parent="WIyWlLk6GJQsqaUBKTNV-1">
          <mxGeometry x="390" y="230" width="120" height="40" as="geometry" />
        </mxCell>
        <mxCell id="j1qlspJzr_2KOxk9KuWd-7" value="" style="edgeStyle=orthogonalEdgeStyle;rounded=0;orthogonalLoop=1;jettySize=auto;html=1;" edge="1" parent="WIyWlLk6GJQsqaUBKTNV-1" source="j1qlspJzr_2KOxk9KuWd-6" target="j1qlspJzr_2KOxk9KuWd-2">
          <mxGeometry relative="1" as="geometry" />
        </mxCell>
        <mxCell id="j1qlspJzr_2KOxk9KuWd-6" value="初始化积分器与场景" style="rounded=0;whiteSpace=wrap;html=1;" vertex="1" parent="WIyWlLk6GJQsqaUBKTNV-1">
          <mxGeometry x="190" y="230" width="80" height="40" as="geometry" />
        </mxCell>
        <mxCell id="j1qlspJzr_2KOxk9KuWd-14" value="" style="edgeStyle=orthogonalEdgeStyle;rounded=0;orthogonalLoop=1;jettySize=auto;html=1;" edge="1" parent="WIyWlLk6GJQsqaUBKTNV-1" source="j1qlspJzr_2KOxk9KuWd-10" target="j1qlspJzr_2KOxk9KuWd-13">
          <mxGeometry relative="1" as="geometry" />
        </mxCell>
        <mxCell id="j1qlspJzr_2KOxk9KuWd-10" value="各个线程调用积分器进行计算" style="rounded=0;whiteSpace=wrap;html=1;" vertex="1" parent="WIyWlLk6GJQsqaUBKTNV-1">
          <mxGeometry x="540" y="230" width="110" height="40" as="geometry" />
        </mxCell>
        <mxCell id="j1qlspJzr_2KOxk9KuWd-17" value="" style="edgeStyle=orthogonalEdgeStyle;rounded=0;orthogonalLoop=1;jettySize=auto;html=1;" edge="1" parent="WIyWlLk6GJQsqaUBKTNV-1" source="j1qlspJzr_2KOxk9KuWd-13" target="j1qlspJzr_2KOxk9KuWd-16">
          <mxGeometry relative="1" as="geometry" />
        </mxCell>
        <mxCell id="j1qlspJzr_2KOxk9KuWd-13" value="将各个线程计算结果汇总" style="rounded=0;whiteSpace=wrap;html=1;" vertex="1" parent="WIyWlLk6GJQsqaUBKTNV-1">
          <mxGeometry x="540" y="290" width="110" height="40" as="geometry" />
        </mxCell>
        <mxCell id="j1qlspJzr_2KOxk9KuWd-20" value="" style="edgeStyle=orthogonalEdgeStyle;rounded=0;orthogonalLoop=1;jettySize=auto;html=1;" edge="1" parent="WIyWlLk6GJQsqaUBKTNV-1" source="j1qlspJzr_2KOxk9KuWd-16" target="j1qlspJzr_2KOxk9KuWd-19">
          <mxGeometry relative="1" as="geometry" />
        </mxCell>
        <mxCell id="j1qlspJzr_2KOxk9KuWd-16" value="存储到“胶片”类中，供之后的步骤使用" style="rounded=0;whiteSpace=wrap;html=1;" vertex="1" parent="WIyWlLk6GJQsqaUBKTNV-1">
          <mxGeometry x="395" y="290" width="110" height="40" as="geometry" />
        </mxCell>
        <mxCell id="j1qlspJzr_2KOxk9KuWd-19" value="结束" style="rounded=1;whiteSpace=wrap;html=1;" vertex="1" parent="WIyWlLk6GJQsqaUBKTNV-1">
          <mxGeometry x="300" y="290" width="60" height="40" as="geometry" />
        </mxCell>
      </root>
    </mxGraphModel>
  </diagram>
</mxfile>
